<svg width="36" height="36" viewBox="0 0 36 36" fill="none" xmlns="http://www.w3.org/2000/svg">
<g id="Facebook" clip-path="url(#clip0_223_233)">
<path id="Vector" d="M34.0137 0H1.98631C0.889302 0 0 0.889302 0 1.98631V34.0137C0 35.1107 0.889302 36 1.98631 36H34.0137C35.1107 36 36 35.1107 36 34.0137V1.98631C36 0.889302 35.1107 0 34.0137 0Z" fill="#3D5A98"/>
<path id="Vector_2" d="M23.7355 36V22.3156H28.1576L28.8189 16.9827H23.7355V13.5788C23.7355 12.0351 24.1495 10.981 26.28 10.981H29V6.20357C27.6829 6.06102 26.3593 5.99324 25.0351 6.00053C21.119 6.00053 18.4221 8.47884 18.4221 13.0503V16.9827H14V22.3156H18.4221V36H23.7355Z" fill="white"/>
</g>
<defs>
<clipPath id="clip0_223_233">
<rect width="36" height="36" fill="white"/>
</clipPath>
</defs>
</svg>
